REM DIRINDEX 1\2\4,1\2\5,1\3\6,1\3\7,1\3\8
REM DIRNAME folder01,folder02,folder03,folder04,folder05,folder06,folder07,folder08
TITLE ""
FILE "LEVEL5-004-midashigo.mp3" MP3
  TRACK 01 AUDIO
    TITLE "0:"
    INDEX 01 00:00:00
  TRACK 02 AUDIO
    TITLE "6:cjc092_3503"
    INDEX 01 00:00:05
  TRACK 03 AUDIO
    TITLE "0:"
    INDEX 01 00:02:36
  TRACK 04 AUDIO
    TITLE "7:cjc092_3504"
    INDEX 01 00:03:08
  TRACK 05 AUDIO
    TITLE "8:cjc092_3505"
    INDEX 01 00:04:40
  TRACK 06 AUDIO
    TITLE "0:"
    INDEX 01 00:08:07
  TRACK 07 AUDIO
    TITLE "7:cjc092_3506"
    INDEX 01 00:08:40
  TRACK 08 AUDIO
    TITLE "8:cjc092_3507"
    INDEX 01 00:09:71
  TRACK 09 AUDIO
    TITLE "0:"
    INDEX 01 00:12:40
  TRACK 10 AUDIO
    TITLE "7:cjc092_3508"
    INDEX 01 00:12:67
  TRACK 11 AUDIO
    TITLE "8:cjc092_3509"
    INDEX 01 00:14:31
  TRACK 12 AUDIO
    TITLE "0:"
    INDEX 01 00:16:69
  TRACK 13 AUDIO
    TITLE "7:cjc092_3510"
    INDEX 01 00:17:25
  TRACK 14 AUDIO
    TITLE "8:cjc092_3511"
    INDEX 01 00:18:58
  TRACK 15 AUDIO
    TITLE "0:"
    INDEX 01 00:22:38
  TRACK 16 AUDIO
    TITLE "7:cjc092_3512"
    INDEX 01 00:22:70
  TRACK 17 AUDIO
    TITLE "8:cjc092_3513"
    INDEX 01 00:24:22
  TRACK 18 AUDIO
    TITLE "0:"
    INDEX 01 00:27:28
  TRACK 19 AUDIO
    TITLE "7:cjc092_3514"
    INDEX 01 00:27:57
  TRACK 20 AUDIO
    TITLE "8:cjc092_3515"
    INDEX 01 00:29:15
  TRACK 21 AUDIO
    TITLE "0:"
    INDEX 01 00:32:19
  TRACK 22 AUDIO
    TITLE "7:cjc092_3516"
    INDEX 01 00:32:50
  TRACK 23 AUDIO
    TITLE "8:cjc092_3517"
    INDEX 01 00:34:08
  TRACK 24 AUDIO
    TITLE "0:"
    INDEX 01 00:36:38
  TRACK 25 AUDIO
    TITLE "7:cjc092_3518"
    INDEX 01 00:36:66
  TRACK 26 AUDIO
    TITLE "8:cjc092_3519"
    INDEX 01 00:38:08
  TRACK 27 AUDIO
    TITLE "0:"
    INDEX 01 00:39:03
  TRACK 28 AUDIO
    TITLE "7:cjc092_3520"
    INDEX 01 00:39:35
  TRACK 29 AUDIO
    TITLE "8:cjc092_3521"
    INDEX 01 00:40:62
  TRACK 30 AUDIO
    TITLE "0:"
    INDEX 01 00:44:32
  TRACK 31 AUDIO
    TITLE "7:cjc092_3522"
    INDEX 01 00:44:61
  TRACK 32 AUDIO
    TITLE "8:cjc092_3523"
    INDEX 01 00:46:25
  TRACK 33 AUDIO
    TITLE "0:"
    INDEX 01 00:48:14
  TRACK 34 AUDIO
    TITLE "7:cjc092_3524"
    INDEX 01 00:48:48
  TRACK 35 AUDIO
    TITLE "8:cjc092_3525"
    INDEX 01 00:49:65
  TRACK 36 AUDIO
    TITLE "0:"
    INDEX 01 00:53:17
  TRACK 37 AUDIO
    TITLE "7:cjc092_3526"
    INDEX 01 00:53:47
  TRACK 38 AUDIO
    TITLE "8:cjc092_3527"
    INDEX 01 00:54:64
  TRACK 39 AUDIO
    TITLE "0:"
    INDEX 01 00:56:53
  TRACK 40 AUDIO
    TITLE "7:cjc092_3528"
    INDEX 01 00:57:07
  TRACK 41 AUDIO
    TITLE "8:cjc092_3529"
    INDEX 01 00:58:50
  TRACK 42 AUDIO
    TITLE "0:"
    INDEX 01 01:01:34
  TRACK 43 AUDIO
    TITLE "7:cjc092_3530"
    INDEX 01 01:01:70
  TRACK 44 AUDIO
    TITLE "8:cjc092_3531"
    INDEX 01 01:03:41
  TRACK 45 AUDIO
    TITLE "0:"
    INDEX 01 01:05:34
  TRACK 46 AUDIO
    TITLE "7:cjc092_3532"
    INDEX 01 01:05:68
  TRACK 47 AUDIO
    TITLE "8:cjc092_3533"
    INDEX 01 01:07:31
  TRACK 48 AUDIO
    TITLE "0:"
    INDEX 01 01:11:62
  TRACK 49 AUDIO
    TITLE "7:cjc092_3534"
    INDEX 01 01:12:13
  TRACK 50 AUDIO
    TITLE "8:cjc092_3535"
    INDEX 01 01:13:44
  TRACK 51 AUDIO
    TITLE "0:"
    INDEX 01 01:17:06
  TRACK 52 AUDIO
    TITLE "7:cjc092_3536"
    INDEX 01 01:17:37
  TRACK 53 AUDIO
    TITLE "8:cjc092_3537"
    INDEX 01 01:18:68
  TRACK 54 AUDIO
    TITLE "0:"
    INDEX 01 01:21:51
  TRACK 55 AUDIO
    TITLE "7:cjc092_3538"
    INDEX 01 01:21:72
  TRACK 56 AUDIO
    TITLE "8:cjc092_3539"
    INDEX 01 01:23:15
  TRACK 57 AUDIO
    TITLE "0:"
    INDEX 01 01:26:46
  TRACK 58 AUDIO
    TITLE "7:cjc092_3540"
    INDEX 01 01:27:03
  TRACK 59 AUDIO
    TITLE "8:cjc092_3541"
    INDEX 01 01:28:39
  TRACK 60 AUDIO
    TITLE "0:"
    INDEX 01 01:31:20
